<mxfile host="app.diagrams.net" modified="2023-06-15T01:24:32.692Z" agent="Mozilla/5.0 (Windows NT 10.0; Win64; x64) AppleWebKit/537.36 (KHTML, like Gecko) Chrome/114.0.0.0 Safari/537.36" etag="9KGK2G-nRuHtmP3siGPz" version="21.3.8" type="google">
  <diagram name="PÃ¡gina-1" id="OCP9O7HJBPreDEQLPYqk">
    <mxGraphModel grid="1" page="1" gridSize="10" guides="1" tooltips="1" connect="1" arrows="1" fold="1" pageScale="1" pageWidth="827" pageHeight="1169" math="0" shadow="0">
      <root>
        <mxCell id="0" />
        <mxCell id="1" parent="0" />
        <mxCell id="VrxU5ttureoFQGeLZdNX-1" value="Funcionario" style="swimlane;fontStyle=1;align=center;verticalAlign=top;childLayout=stackLayout;horizontal=1;startSize=26;horizontalStack=0;resizeParent=1;resizeParentMax=0;resizeLast=0;collapsible=1;marginBottom=0;whiteSpace=wrap;html=1;" vertex="1" parent="1">
          <mxGeometry x="280" y="60" width="220" height="110" as="geometry" />
        </mxCell>
        <mxCell id="VrxU5ttureoFQGeLZdNX-2" value="+ salario: double" style="text;strokeColor=none;fillColor=none;align=left;verticalAlign=top;spacingLeft=4;spacingRight=4;overflow=hidden;rotatable=0;points=[[0,0.5],[1,0.5]];portConstraint=eastwest;whiteSpace=wrap;html=1;" vertex="1" parent="VrxU5ttureoFQGeLZdNX-1">
          <mxGeometry y="26" width="220" height="26" as="geometry" />
        </mxCell>
        <mxCell id="VrxU5ttureoFQGeLZdNX-3" value="" style="line;strokeWidth=1;fillColor=none;align=left;verticalAlign=middle;spacingTop=-1;spacingLeft=3;spacingRight=3;rotatable=0;labelPosition=right;points=[];portConstraint=eastwest;strokeColor=inherit;" vertex="1" parent="VrxU5ttureoFQGeLZdNX-1">
          <mxGeometry y="52" width="220" height="8" as="geometry" />
        </mxCell>
        <mxCell id="VrxU5ttureoFQGeLZdNX-4" value="+ calcularSalario(horasTrabalhadas: double, valorHora: double): double" style="text;strokeColor=none;fillColor=none;align=left;verticalAlign=top;spacingLeft=4;spacingRight=4;overflow=hidden;rotatable=0;points=[[0,0.5],[1,0.5]];portConstraint=eastwest;whiteSpace=wrap;html=1;" vertex="1" parent="VrxU5ttureoFQGeLZdNX-1">
          <mxGeometry y="60" width="220" height="50" as="geometry" />
        </mxCell>
        <mxCell id="VrxU5ttureoFQGeLZdNX-22" value="Extends" style="endArrow=block;endSize=16;endFill=0;html=1;rounded=0;exitX=0.448;exitY=0.006;exitDx=0;exitDy=0;exitPerimeter=0;" edge="1" parent="VrxU5ttureoFQGeLZdNX-1" source="VrxU5ttureoFQGeLZdNX-16">
          <mxGeometry width="160" relative="1" as="geometry">
            <mxPoint x="-26" y="110" as="sourcePoint" />
            <mxPoint x="134" y="110" as="targetPoint" />
          </mxGeometry>
        </mxCell>
        <mxCell id="VrxU5ttureoFQGeLZdNX-5" value="Desempenador_de_vidro" style="swimlane;fontStyle=1;align=center;verticalAlign=top;childLayout=stackLayout;horizontal=1;startSize=26;horizontalStack=0;resizeParent=1;resizeParentMax=0;resizeLast=0;collapsible=1;marginBottom=0;whiteSpace=wrap;html=1;" vertex="1" parent="1">
          <mxGeometry x="50" y="240" width="220" height="160" as="geometry" />
        </mxCell>
        <mxCell id="VrxU5ttureoFQGeLZdNX-9" value="+ salario: double" style="text;strokeColor=none;fillColor=none;align=left;verticalAlign=top;spacingLeft=4;spacingRight=4;overflow=hidden;rotatable=0;points=[[0,0.5],[1,0.5]];portConstraint=eastwest;whiteSpace=wrap;html=1;" vertex="1" parent="VrxU5ttureoFQGeLZdNX-5">
          <mxGeometry y="26" width="220" height="26" as="geometry" />
        </mxCell>
        <mxCell id="VrxU5ttureoFQGeLZdNX-10" value="ferramentas: String" style="text;strokeColor=none;fillColor=none;align=left;verticalAlign=top;spacingLeft=4;spacingRight=4;overflow=hidden;rotatable=0;points=[[0,0.5],[1,0.5]];portConstraint=eastwest;whiteSpace=wrap;html=1;" vertex="1" parent="VrxU5ttureoFQGeLZdNX-5">
          <mxGeometry y="52" width="220" height="26" as="geometry" />
        </mxCell>
        <mxCell id="VrxU5ttureoFQGeLZdNX-7" value="" style="line;strokeWidth=1;fillColor=none;align=left;verticalAlign=middle;spacingTop=-1;spacingLeft=3;spacingRight=3;rotatable=0;labelPosition=right;points=[];portConstraint=eastwest;strokeColor=inherit;" vertex="1" parent="VrxU5ttureoFQGeLZdNX-5">
          <mxGeometry y="78" width="220" height="8" as="geometry" />
        </mxCell>
        <mxCell id="VrxU5ttureoFQGeLZdNX-11" value="+ calcularSalario(horasTrabalhadas: double, valorHora: double): double" style="text;strokeColor=none;fillColor=none;align=left;verticalAlign=top;spacingLeft=4;spacingRight=4;overflow=hidden;rotatable=0;points=[[0,0.5],[1,0.5]];portConstraint=eastwest;whiteSpace=wrap;html=1;" vertex="1" parent="VrxU5ttureoFQGeLZdNX-5">
          <mxGeometry y="86" width="220" height="34" as="geometry" />
        </mxCell>
        <mxCell id="VrxU5ttureoFQGeLZdNX-8" value="+ vidrosQuebrados(qtd_vidros: int): int" style="text;strokeColor=none;fillColor=none;align=left;verticalAlign=top;spacingLeft=4;spacingRight=4;overflow=hidden;rotatable=0;points=[[0,0.5],[1,0.5]];portConstraint=eastwest;whiteSpace=wrap;html=1;" vertex="1" parent="VrxU5ttureoFQGeLZdNX-5">
          <mxGeometry y="120" width="220" height="40" as="geometry" />
        </mxCell>
        <mxCell id="VrxU5ttureoFQGeLZdNX-16" value="Escovador_de_Bits" style="swimlane;fontStyle=1;align=center;verticalAlign=top;childLayout=stackLayout;horizontal=1;startSize=26;horizontalStack=0;resizeParent=1;resizeParentMax=0;resizeLast=0;collapsible=1;marginBottom=0;whiteSpace=wrap;html=1;" vertex="1" parent="1">
          <mxGeometry x="320" y="264" width="220" height="170" as="geometry" />
        </mxCell>
        <mxCell id="VrxU5ttureoFQGeLZdNX-17" value="+ salario: double" style="text;strokeColor=none;fillColor=none;align=left;verticalAlign=top;spacingLeft=4;spacingRight=4;overflow=hidden;rotatable=0;points=[[0,0.5],[1,0.5]];portConstraint=eastwest;whiteSpace=wrap;html=1;" vertex="1" parent="VrxU5ttureoFQGeLZdNX-16">
          <mxGeometry y="26" width="220" height="26" as="geometry" />
        </mxCell>
        <mxCell id="VrxU5ttureoFQGeLZdNX-24" value="+ turno: int" style="text;strokeColor=none;fillColor=none;align=left;verticalAlign=top;spacingLeft=4;spacingRight=4;overflow=hidden;rotatable=0;points=[[0,0.5],[1,0.5]];portConstraint=eastwest;whiteSpace=wrap;html=1;" vertex="1" parent="VrxU5ttureoFQGeLZdNX-16">
          <mxGeometry y="52" width="220" height="26" as="geometry" />
        </mxCell>
        <mxCell id="VrxU5ttureoFQGeLZdNX-18" value="" style="line;strokeWidth=1;fillColor=none;align=left;verticalAlign=middle;spacingTop=-1;spacingLeft=3;spacingRight=3;rotatable=0;labelPosition=right;points=[];portConstraint=eastwest;strokeColor=inherit;" vertex="1" parent="VrxU5ttureoFQGeLZdNX-16">
          <mxGeometry y="78" width="220" height="8" as="geometry" />
        </mxCell>
        <mxCell id="VrxU5ttureoFQGeLZdNX-19" value="+ calcularSalario(horasTrabalhadas: double, valorHora: double): double" style="text;strokeColor=none;fillColor=none;align=left;verticalAlign=top;spacingLeft=4;spacingRight=4;overflow=hidden;rotatable=0;points=[[0,0.5],[1,0.5]];portConstraint=eastwest;whiteSpace=wrap;html=1;" vertex="1" parent="VrxU5ttureoFQGeLZdNX-16">
          <mxGeometry y="86" width="220" height="50" as="geometry" />
        </mxCell>
        <mxCell id="VrxU5ttureoFQGeLZdNX-25" value="+ mudarTurno(turno int): int" style="text;strokeColor=none;fillColor=none;align=left;verticalAlign=top;spacingLeft=4;spacingRight=4;overflow=hidden;rotatable=0;points=[[0,0.5],[1,0.5]];portConstraint=eastwest;whiteSpace=wrap;html=1;" vertex="1" parent="VrxU5ttureoFQGeLZdNX-16">
          <mxGeometry y="136" width="220" height="34" as="geometry" />
        </mxCell>
        <mxCell id="VrxU5ttureoFQGeLZdNX-20" value="Extends" style="endArrow=block;endSize=16;endFill=0;html=1;rounded=0;" edge="1" parent="1">
          <mxGeometry x="-0.3983" y="-68" width="160" relative="1" as="geometry">
            <mxPoint x="680" y="260" as="sourcePoint" />
            <mxPoint x="510" y="114.5" as="targetPoint" />
            <mxPoint y="1" as="offset" />
          </mxGeometry>
        </mxCell>
        <mxCell id="VrxU5ttureoFQGeLZdNX-23" value="Extends" style="endArrow=block;endSize=16;endFill=0;html=1;rounded=0;exitX=0.5;exitY=0;exitDx=0;exitDy=0;" edge="1" parent="1" source="VrxU5ttureoFQGeLZdNX-5">
          <mxGeometry width="160" relative="1" as="geometry">
            <mxPoint x="110" y="114.5" as="sourcePoint" />
            <mxPoint x="270" y="114.5" as="targetPoint" />
          </mxGeometry>
        </mxCell>
        <mxCell id="VrxU5ttureoFQGeLZdNX-26" value="Gondoleiro_do_tiete" style="swimlane;fontStyle=1;align=center;verticalAlign=top;childLayout=stackLayout;horizontal=1;startSize=26;horizontalStack=0;resizeParent=1;resizeParentMax=0;resizeLast=0;collapsible=1;marginBottom=0;whiteSpace=wrap;html=1;" vertex="1" parent="1">
          <mxGeometry x="570" y="260" width="240" height="170" as="geometry" />
        </mxCell>
        <mxCell id="VrxU5ttureoFQGeLZdNX-27" value="+ salario: double" style="text;strokeColor=none;fillColor=none;align=left;verticalAlign=top;spacingLeft=4;spacingRight=4;overflow=hidden;rotatable=0;points=[[0,0.5],[1,0.5]];portConstraint=eastwest;whiteSpace=wrap;html=1;" vertex="1" parent="VrxU5ttureoFQGeLZdNX-26">
          <mxGeometry y="26" width="240" height="26" as="geometry" />
        </mxCell>
        <mxCell id="VrxU5ttureoFQGeLZdNX-28" value="+ cartao_de_vacina: string" style="text;strokeColor=none;fillColor=none;align=left;verticalAlign=top;spacingLeft=4;spacingRight=4;overflow=hidden;rotatable=0;points=[[0,0.5],[1,0.5]];portConstraint=eastwest;whiteSpace=wrap;html=1;" vertex="1" parent="VrxU5ttureoFQGeLZdNX-26">
          <mxGeometry y="52" width="240" height="26" as="geometry" />
        </mxCell>
        <mxCell id="VrxU5ttureoFQGeLZdNX-29" value="" style="line;strokeWidth=1;fillColor=none;align=left;verticalAlign=middle;spacingTop=-1;spacingLeft=3;spacingRight=3;rotatable=0;labelPosition=right;points=[];portConstraint=eastwest;strokeColor=inherit;" vertex="1" parent="VrxU5ttureoFQGeLZdNX-26">
          <mxGeometry y="78" width="240" height="8" as="geometry" />
        </mxCell>
        <mxCell id="VrxU5ttureoFQGeLZdNX-30" value="+ calcularSalario(horasTrabalhadas: double, valorHora: double): double" style="text;strokeColor=none;fillColor=none;align=left;verticalAlign=top;spacingLeft=4;spacingRight=4;overflow=hidden;rotatable=0;points=[[0,0.5],[1,0.5]];portConstraint=eastwest;whiteSpace=wrap;html=1;" vertex="1" parent="VrxU5ttureoFQGeLZdNX-26">
          <mxGeometry y="86" width="240" height="50" as="geometry" />
        </mxCell>
        <mxCell id="VrxU5ttureoFQGeLZdNX-31" value="+ estaDoente(doente: boolean):boolean" style="text;strokeColor=none;fillColor=none;align=left;verticalAlign=top;spacingLeft=4;spacingRight=4;overflow=hidden;rotatable=0;points=[[0,0.5],[1,0.5]];portConstraint=eastwest;whiteSpace=wrap;html=1;" vertex="1" parent="VrxU5ttureoFQGeLZdNX-26">
          <mxGeometry y="136" width="240" height="34" as="geometry" />
        </mxCell>
      </root>
    </mxGraphModel>
  </diagram>
</mxfile>
